Jump_normalized_Motion_pl02
version=1
nRows=8
nColumns=43
inDegrees=yes
endheader
time		pelvis_tilt		pelvis_list		pelvis_rotation		pelvis_tx		pelvis_ty		pelvis_tz		hip_flexion_r		hip_adduction_r		hip_rotation_r		knee_angle_r		ankle_angle_r		subtalar_angle_r		mtp_angle_r		hip_flexion_l		hip_adduction_l		hip_rotation_l		knee_angle_l		ankle_angle_l		subtalar_angle_l		mtp_angle_l		lumbar_extension		lumbar_bending		lumbar_rotation		neck_flexion		neck_lateral_bending		neck_rotation		arm_flex_r		arm_add_r		arm_rot_r		elbow_flex_r		pro_sup_r		wrist_flex_r		wrist_dev_r		hand_finger_flex_r		arm_flex_l		arm_add_l		arm_rot_l		elbow_flex_l		pro_sup_l		wrist_flex_l		wrist_dev_l		hand_finger_flex_l		
2.975000		-4.818985		-28.422833		87.347731		0.015372		1.635803		1.689194		103.098055		-3.207221		10.274957		-131.720793		12.721817		8.077627		31.372385		99.431425		-8.592653		5.087698		-131.504091		30.495003		12.575774		13.865877		-51.860932		-5.139617		-1.973258		43.621812		3.426646		-1.652908		64.395347		-24.395355		11.146134		73.079637		105.918433		-15.408098		-8.398598		2.743924		68.425091		-22.408188		11.440700		64.790633		98.395263		-4.511658		3.880164		4.472452		
2.977652		-4.831985		-28.533429		87.373525		0.015083		1.635479		1.688126		103.091156		-3.300475		10.351867		-131.791992		12.679859		8.029564		31.399982		99.406274		-8.510916		5.066497		-131.578135		30.541363		12.599349		13.885910		-51.643775		-5.132535		-2.015964		43.724937		3.489150		-1.706407		65.854999		-24.134943		11.700136		72.835142		105.738330		-15.156246		-8.250529		2.445841		69.789108		-22.173295		12.033825		64.584607		98.185534		-4.713526		3.926826		4.251757		
2.980303		-4.859439		-28.596543		87.414494		0.014735		1.635355		1.687041		103.013630		-3.394784		10.468478		-131.846426		12.608765		7.975521		31.437688		99.340524		-8.434839		5.043495		-131.639965		30.587727		12.616881		13.913155		-51.484848		-5.116060		-2.111152		43.743126		3.565679		-1.762832		67.377665		-23.887545		12.329769		72.546075		105.398100		-14.866794		-8.092696		2.016300		71.215665		-21.985439		12.789391		64.350129		97.856639		-5.001812		3.944685		3.953831		
2.982955		-4.924170		-28.354879		87.500062		0.014373		1.635681		1.685973		102.629279		-3.568936		10.657406		-131.920053		12.500655		7.830601		31.530619		98.927132		-8.269749		4.965193		-131.678743		30.618496		12.621582		13.971857		-51.659400		-5.090218		-2.288869		43.394937		3.658739		-1.784916		69.059990		-23.753868		13.243051		72.247189		104.434918		-14.450193		-7.949258		0.912446		72.865779		-22.103594		14.148021		64.093660		96.914189		-5.715252		3.797552		3.295052		
2.985606		-4.940813		-28.638849		87.372408		0.014355		1.635042		1.684646		102.823997		-3.479697		10.673186		-132.002154		12.684087		7.889813		31.545534		99.098086		-8.393661		4.954050		-131.801195		30.661510		12.619053		13.984794		-51.234465		-5.208686		-2.215060		43.681527		3.677096		-1.805761		70.222872		-23.270332		13.356898		72.118601		104.295074		-14.365043		-7.890264		0.736709		73.943070		-21.655492		14.244898		64.062088		96.776476		-5.824396		3.794505		3.187090		
2.988258		-4.979755		-28.736472		87.331973		0.014161		1.634701		1.683467		102.808323		-3.491713		10.762387		-132.084308		12.623530		7.901667		31.571048		99.102474		-8.394060		4.952524		-131.916093		30.660501		12.654087		14.002696		-51.025020		-5.265849		-2.241393		43.605215		3.748829		-1.841233		71.547095		-22.985479		13.764630		72.025577		104.001817		-14.159325		-7.849695		0.462363		75.212820		-21.423156		14.734331		64.026103		96.592746		-5.940219		3.736725		2.997959		
2.990909		-5.045499		-28.727314		87.325960		0.013994		1.634884		1.682417		102.651206		-3.550214		10.864776		-132.114707		12.417581		7.883057		31.623338		98.937338		-8.351341		4.890183		-131.907116		30.615300		12.735806		14.034470		-50.925291		-5.321243		-2.351682		43.504530		3.870960		-1.897248		73.228667		-22.778673		14.651442		71.511989		103.383602		-13.735857		-7.692018		-0.088516		76.861809		-21.333687		15.804112		63.586743		96.220646		-6.158316		3.701444		2.622665		
2.993561		-5.065062		-28.954768		87.235129		0.014065		1.634425		1.681034		102.774308		-3.476445		10.875148		-132.194455		12.644925		7.899020		31.633711		99.041780		-8.471918		4.874251		-131.998546		30.627984		12.747056		14.043388		-50.559605		-5.427273		-2.302165		43.697894		3.882739		-1.903751		74.392496		-22.326927		14.799293		71.373749		103.234674		-13.670866		-7.633950		-0.217852		77.976124		-20.917653		15.947359		63.555331		96.145735		-6.236033		3.665462		2.513162		
